<svg width="14" height="14" viewBox="0 0 14 14" fill="none" xmlns="http://www.w3.org/2000/svg">
<path d="M8.17511 6.99991L13.4251 1.75824C13.582 1.60132 13.6702 1.3885 13.6702 1.16658C13.6702 0.944659 13.582 0.73183 13.4251 0.57491C13.2682 0.417991 13.0554 0.329834 12.8334 0.329834C12.6115 0.329834 12.3987 0.417991 12.2418 0.57491L7.00011 5.82491L1.75845 0.57491C1.60153 0.417991 1.3887 0.329834 1.16678 0.329834C0.944861 0.329834 0.732032 0.417991 0.575112 0.57491C0.418192 0.73183 0.330036 0.944659 0.330036 1.16658C0.330036 1.3885 0.418192 1.60132 0.575112 1.75824L5.82511 6.99991L0.575112 12.2416C0.497005 12.319 0.43501 12.4112 0.392703 12.5128C0.350395 12.6143 0.328613 12.7232 0.328613 12.8332C0.328613 12.9433 0.350395 13.0522 0.392703 13.1537C0.43501 13.2553 0.497005 13.3474 0.575112 13.4249C0.652581 13.503 0.744749 13.565 0.846298 13.6073C0.947847 13.6496 1.05677 13.6714 1.16678 13.6714C1.27679 13.6714 1.38571 13.6496 1.48726 13.6073C1.58881 13.565 1.68098 13.503 1.75845 13.4249L7.00011 8.17491L12.2418 13.4249C12.3192 13.503 12.4114 13.565 12.513 13.6073C12.6145 13.6496 12.7234 13.6714 12.8334 13.6714C12.9435 13.6714 13.0524 13.6496 13.1539 13.6073C13.2555 13.565 13.3476 13.503 13.4251 13.4249C13.5032 13.3474 13.5652 13.2553 13.6075 13.1537C13.6498 13.0522 13.6716 12.9433 13.6716 12.8332C13.6716 12.7232 13.6498 12.6143 13.6075 12.5128C13.5652 12.4112 13.5032 12.319 13.4251 12.2416L8.17511 6.99991Z" fill="#B0B0B0"/>
</svg>
