<svg width="56" height="56" viewBox="0 0 56 56" fill="none" xmlns="http://www.w3.org/2000/svg">
<path d="M28 49C39.598 49 49 39.598 49 28C49 16.402 39.598 7 28 7C16.402 7 7 16.402 7 28C7 39.598 16.402 49 28 49Z" stroke="#C83439" stroke-width="3.5" stroke-miterlimit="10"/>
<path d="M46.848 37.2692L34.9729 29.9654C34.7647 29.8374 34.532 29.7544 34.2899 29.7218L29.2983 29.0489C28.9234 28.9984 28.5423 29.0706 28.212 29.2549C27.8817 29.4391 27.62 29.7254 27.466 30.0708L24.4694 36.7949C24.3301 37.1075 24.2855 37.4543 24.3412 37.792C24.3969 38.1298 24.5505 38.4438 24.7829 38.6952L28.8954 43.1434C29.0818 43.3451 29.2182 43.5878 29.2934 43.8519C29.3687 44.116 29.3807 44.3941 29.3286 44.6638L28.4909 48.9942" stroke="#C83439" stroke-width="3.5" stroke-linecap="round" stroke-linejoin="round"/>
<path d="M14.2085 12.1641L12.252 16.7906C12.0775 17.2031 12.0679 17.6668 12.225 18.0862L14.7386 24.7949C14.8416 25.0696 15.0119 25.314 15.234 25.5057C15.4561 25.6974 15.7228 25.8301 16.0097 25.8918L20.6975 26.8993C20.9576 26.9552 21.2015 27.0697 21.4108 27.2341C21.62 27.3984 21.789 27.6083 21.9049 27.8478L22.7374 29.5676C22.8806 29.8636 23.1044 30.1132 23.383 30.2878C23.6616 30.4625 23.9837 30.5551 24.3125 30.5551H27.2509" stroke="#C83439" stroke-width="3.5" stroke-linecap="round" stroke-linejoin="round"/>
<path d="M33.3503 7.68848L35.3921 11.3456C35.5851 11.6914 35.6552 12.0923 35.5908 12.483C35.5265 12.8737 35.3316 13.231 35.0379 13.4966L29.1511 18.8205C29.0512 18.9108 28.9412 18.9893 28.8233 19.0545L26.1454 20.5333C25.8864 20.6763 25.5953 20.7514 25.2994 20.7514H20.6301C20.2858 20.7514 19.9491 20.8529 19.6622 21.0434C19.3754 21.2338 19.151 21.5047 19.0174 21.822L17.1958 26.1463" stroke="#C83439" stroke-width="3.5" stroke-linecap="round" stroke-linejoin="round"/>
</svg>
