<svg width="56" height="56" viewBox="0 0 56 56" fill="none" xmlns="http://www.w3.org/2000/svg">
<path d="M28.0005 40.25C34.766 40.25 40.2505 34.7655 40.2505 28C40.2505 21.2345 34.766 15.75 28.0005 15.75C21.235 15.75 15.7505 21.2345 15.7505 28C15.7505 34.7655 21.235 40.25 28.0005 40.25Z" stroke="#C83439" stroke-width="3.5" stroke-linecap="round" stroke-linejoin="round"/>
<path d="M47.2501 26.2501L49.5048 22.8681C49.6517 22.6503 49.7489 22.4027 49.7893 22.143C49.8298 21.8834 49.8127 21.618 49.739 21.3657C49.3137 19.9651 48.7531 18.6092 48.0652 17.3171C47.9392 17.0871 47.7639 16.8877 47.552 16.7332C47.34 16.5788 47.0966 16.473 46.839 16.4235L42.8495 15.6255L40.3746 13.1507L39.5767 9.161C39.5271 8.90343 39.4214 8.65997 39.2669 8.448C39.1124 8.23603 38.9131 8.06078 38.683 7.93477C37.3909 7.24696 36.0349 6.68645 34.6342 6.26114C34.3819 6.18752 34.1166 6.17034 33.8569 6.21082C33.5973 6.2513 33.3497 6.34844 33.1318 6.49536L29.7501 8.74985H26.2501L22.8684 6.49536C22.6505 6.34845 22.4029 6.2513 22.1433 6.21082C21.8836 6.17034 21.6182 6.18752 21.366 6.26114C19.9653 6.68645 18.6093 7.24695 17.3172 7.93475C17.0872 8.06077 16.8878 8.23602 16.7333 8.448C16.5788 8.65998 16.4731 8.90346 16.4236 9.16104L15.6258 13.1505L13.1507 15.6255L9.16125 16.4233C8.90368 16.4728 8.66021 16.5786 8.44824 16.733C8.23627 16.8875 8.06102 17.0869 7.935 17.3169C7.24709 18.609 6.68649 19.9651 6.26113 21.3658C6.18751 21.618 6.17034 21.8834 6.21083 22.143C6.25131 22.4027 6.34847 22.6502 6.49539 22.8681L8.74988 26.2499V29.7499L6.49538 33.1316C6.34846 33.3495 6.25132 33.597 6.21084 33.8567C6.17036 34.1163 6.18754 34.3817 6.26116 34.6339C6.6864 36.0347 7.24691 37.3907 7.93476 38.6828C8.06078 38.9129 8.23603 39.1122 8.448 39.2667C8.65997 39.4211 8.90342 39.5269 9.16098 39.5764L13.1507 40.3744L15.6255 42.8492L16.4233 46.8389C16.4728 47.0965 16.5786 47.34 16.7331 47.5519C16.8875 47.7639 17.0869 47.9392 17.3169 48.0652C18.609 48.7531 19.965 49.3136 21.3656 49.7388C21.6179 49.8124 21.8832 49.8296 22.1429 49.7891C22.4025 49.7487 22.65 49.6515 22.8679 49.5046L26.2499 47.2501H29.7499L33.1318 49.5048C33.3497 49.6517 33.5973 49.7488 33.8569 49.7893C34.1166 49.8298 34.3819 49.8126 34.6342 49.739C36.0348 49.3137 37.3908 48.7532 38.6829 48.0654C38.9129 47.9394 39.1122 47.7641 39.2667 47.5522C39.4212 47.3402 39.5269 47.0967 39.5764 46.8392L40.3744 42.8494L42.8492 40.3744L46.8389 39.5766C47.0965 39.5271 47.34 39.4213 47.5519 39.2669C47.7639 39.1124 47.9392 38.9131 48.0652 38.683C48.7531 37.391 49.3137 36.035 49.739 34.6344C49.8127 34.3821 49.8298 34.1168 49.7893 33.8571C49.7489 33.5974 49.6517 33.3499 49.5048 33.132L47.2501 29.7501V26.2501Z" stroke="#C83439" stroke-width="3.5" stroke-linecap="round" stroke-linejoin="round"/>
</svg>
