<svg width="56" height="56" viewBox="0 0 56 56" fill="none" xmlns="http://www.w3.org/2000/svg">
<path d="M22.75 24.5H14" stroke="#C83439" stroke-width="3.5" stroke-linecap="round" stroke-linejoin="round"/>
<path d="M22.75 31.5H14" stroke="#C83439" stroke-width="3.5" stroke-linecap="round" stroke-linejoin="round"/>
<path d="M35.853 31.5C32.9535 31.5 30.603 29.1495 30.603 26.25C30.603 23.3505 32.9535 21 35.853 21C38.7525 21 41.103 23.3505 41.103 26.25C41.103 29.1495 38.7525 31.5 35.853 31.5Z" stroke="#C83439" stroke-width="3.5" stroke-linecap="round" stroke-linejoin="round"/>
<path d="M42.6328 36.7499C42.2444 35.2473 41.3678 33.9163 40.1407 32.966C38.9136 32.0157 37.4056 31.5001 35.8536 31.5C34.3016 31.4999 32.7936 32.0155 31.5664 32.9657C30.3393 33.9159 29.4626 35.2468 29.074 36.7494" stroke="#C83439" stroke-width="3.5" stroke-linecap="round" stroke-linejoin="round"/>
<path d="M8.75 10.5H47.25C48.2165 10.5 49 11.2835 49 12.25V43.75C49 44.7165 48.2165 45.5 47.25 45.5H8.75C7.7835 45.5 7 44.7165 7 43.75V12.25C7 11.2835 7.7835 10.5 8.75 10.5Z" stroke="#C83439" stroke-width="3.5" stroke-linecap="round" stroke-linejoin="round"/>
</svg>
