<svg width="17" height="17" viewBox="0 0 17 17" fill="none" xmlns="http://www.w3.org/2000/svg">
<path fill-rule="evenodd" clip-rule="evenodd" d="M8.66695 0.844238C6.54254 0.844238 6.27593 0.853527 5.44155 0.891498C4.6088 0.929632 4.04038 1.06147 3.54301 1.25491C3.02854 1.4547 2.59212 1.72197 2.15733 2.15692C1.72221 2.59171 1.45495 3.02813 1.2545 3.54244C1.06057 4.03997 0.928573 4.60856 0.891091 5.44098C0.853772 6.27536 0.843994 6.54213 0.843994 8.66654C0.843994 10.7909 0.853446 11.0567 0.891254 11.8911C0.929551 12.7239 1.06139 13.2923 1.25467 13.7897C1.45462 14.3041 1.72188 14.7406 2.15684 15.1753C2.59146 15.6105 3.02788 15.8784 3.54204 16.0782C4.03973 16.2716 4.60831 16.4034 5.4409 16.4416C6.27528 16.4796 6.54173 16.4888 8.66597 16.4888C10.7905 16.4888 11.0563 16.4796 11.8907 16.4416C12.7235 16.4034 13.2925 16.2716 13.7902 16.0782C14.3045 15.8784 14.7403 15.6105 15.1749 15.1753C15.6101 14.7406 15.8773 14.3041 16.0778 13.7898C16.2701 13.2923 16.4021 12.7237 16.4412 11.8913C16.4787 11.0569 16.4884 10.7909 16.4884 8.66654C16.4884 6.54213 16.4787 6.27552 16.4412 5.44114C16.4021 4.60839 16.2701 4.03997 16.0778 3.54261C15.8773 3.02813 15.6101 2.59171 15.1749 2.15692C14.7398 1.7218 14.3047 1.45454 13.7897 1.25491C13.2911 1.06147 12.7223 0.929632 11.8896 0.891498C11.0552 0.853527 10.7896 0.844238 8.66451 0.844238H8.66695ZM7.96519 2.25386C8.17346 2.25353 8.40585 2.25386 8.66692 2.25386C10.7555 2.25386 11.003 2.26136 11.8278 2.29884C12.5905 2.33371 13.0044 2.46115 13.2801 2.56822C13.6452 2.71 13.9054 2.87948 14.179 3.15326C14.4528 3.42704 14.6223 3.68779 14.7644 4.05283C14.8715 4.32824 14.9991 4.74217 15.0338 5.50484C15.0713 6.32944 15.0794 6.57715 15.0794 8.66473C15.0794 10.7523 15.0713 11 15.0338 11.8246C14.9989 12.5873 14.8715 13.0012 14.7644 13.2766C14.6226 13.6417 14.4528 13.9016 14.179 14.1752C13.9053 14.449 13.6453 14.6185 13.2801 14.7603C13.0047 14.8678 12.5905 14.9949 11.8278 15.0298C11.0032 15.0673 10.7555 15.0754 8.66692 15.0754C6.5782 15.0754 6.33065 15.0673 5.50605 15.0298C4.74338 14.9946 4.32945 14.8672 4.05355 14.7601C3.68851 14.6183 3.42777 14.4488 3.15398 14.175C2.8802 13.9013 2.71072 13.6412 2.56862 13.276C2.46155 13.0006 2.33395 12.5866 2.29923 11.824C2.26175 10.9994 2.25426 10.7517 2.25426 8.66277C2.25426 6.57389 2.26175 6.32749 2.29923 5.50289C2.33411 4.74021 2.46155 4.32628 2.56862 4.05055C2.71039 3.6855 2.8802 3.42476 3.15398 3.15098C3.42777 2.8772 3.68851 2.70772 4.05355 2.56561C4.32929 2.45806 4.74338 2.33094 5.50605 2.29591C6.22766 2.26331 6.50731 2.25353 7.96519 2.2519V2.25386ZM12.8424 3.55269C12.3242 3.55269 11.9037 3.97265 11.9037 4.49104C11.9037 5.00927 12.3242 5.42972 12.8424 5.42972C13.3606 5.42972 13.7811 5.00927 13.7811 4.49104C13.7811 3.97281 13.3606 3.55269 12.8424 3.55269ZM8.66696 4.64944C6.44852 4.64944 4.64988 6.44808 4.64988 8.66652C4.64988 10.885 6.44852 12.6828 8.66696 12.6828C10.8854 12.6828 12.6834 10.885 12.6834 8.66652C12.6834 6.44808 10.8854 4.64944 8.66696 4.64944ZM8.66693 6.05908C10.1069 6.05908 11.2744 7.2264 11.2744 8.66652C11.2744 10.1065 10.1069 11.274 8.66693 11.274C7.22681 11.274 6.0595 10.1065 6.0595 8.66652C6.0595 7.2264 7.22681 6.05908 8.66693 6.05908Z" fill="white"/>
</svg>
