<svg width="24" height="24" viewBox="0 0 24 24" fill="none" xmlns="http://www.w3.org/2000/svg">
<path d="M17.625 1.40625C16.3227 1.40625 15.1287 1.81894 14.0762 2.63287C13.0673 3.4132 12.3955 4.40709 12 5.12981C11.6045 4.40705 10.9327 3.4132 9.92377 2.63287C8.87133 1.81894 7.67733 1.40625 6.375 1.40625C2.74069 1.40625 0 4.37892 0 8.32097C0 12.5798 3.4192 15.4935 8.59542 19.9046C9.47442 20.6537 10.4707 21.5028 11.5063 22.4084C11.6428 22.5279 11.8181 22.5938 12 22.5938C12.1819 22.5938 12.3572 22.5279 12.4937 22.4085C13.5293 21.5027 14.5256 20.6537 15.4051 19.9042C20.5808 15.4935 24 12.5798 24 8.32097C24 4.37892 21.2593 1.40625 17.625 1.40625Z" fill="#ACAEB4"/>
</svg>
