<svg width="14" height="14" viewBox="0 0 14 14" fill="none" xmlns="http://www.w3.org/2000/svg">
<path d="M13.9961 14V13.9994H13.9996V8.86507C13.9996 6.35331 13.4589 4.41846 10.5225 4.41846C9.11086 4.41846 8.16355 5.1931 7.77681 5.9275H7.73598V4.65295H4.95181V13.9994H7.85089V9.37139C7.85089 8.15284 8.08189 6.97455 9.59092 6.97455C11.0778 6.97455 11.1 8.36517 11.1 9.44956V14H13.9961Z" fill="#0E171F"/>
<path d="M0.231049 4.65332H3.13363V13.9998H0.231049V4.65332Z" fill="#0E171F"/>
<path d="M1.68112 0C0.753061 0 0 0.753061 0 1.68112C0 2.60917 0.753061 3.37798 1.68112 3.37798C2.60917 3.37798 3.36223 2.60917 3.36223 1.68112C3.36165 0.753061 2.60859 0 1.68112 0V0Z" fill="#0E171F"/>
</svg>
