<svg width="18" height="12" viewBox="0 0 18 12" fill="none" xmlns="http://www.w3.org/2000/svg">
<path fill-rule="evenodd" clip-rule="evenodd" d="M1.49993 0H15.5666C15.7975 0 16.0137 0.0567667 16.2092 0.150333L9.59379 6.73243C9.00886 7.31736 8.05766 7.31736 7.47273 6.73243L0.8573 0.150333C1.05287 0.0567667 1.26903 0 1.49993 0ZM11.7402 6.00023L16.9162 0.857605C17.0098 1.05317 17.0665 1.26934 17.0665 1.50024V10.5002C17.0665 10.7311 17.0098 10.9473 16.9162 11.1429L11.7402 6.00023ZM0.150333 0.857605C0.0567666 1.05317 0 1.26934 0 1.50024V10.5002C0 10.7311 0.0567666 10.9473 0.150333 11.1429L5.3263 6.00023L0.150333 0.857605ZM10.3008 7.4394L11.0333 6.70697L16.2092 11.8496C16.0137 11.9432 15.7975 11.9999 15.5666 11.9999H1.49993C1.26903 11.9999 1.05287 11.9432 0.8573 11.8496L6.03326 6.70697L6.76566 7.4394C7.74029 8.41403 9.32619 8.41403 10.3008 7.4394Z" fill="#0E171F"/>
</svg>
