<svg width="23" height="23" viewBox="0 0 23 23" fill="none" xmlns="http://www.w3.org/2000/svg">
<path d="M11.5 12.2188C13.0878 12.2188 14.375 10.9316 14.375 9.34375C14.375 7.75593 13.0878 6.46875 11.5 6.46875C9.91218 6.46875 8.625 7.75593 8.625 9.34375C8.625 10.9316 9.91218 12.2188 11.5 12.2188Z" stroke="#0E171F" stroke-width="2" stroke-linecap="round" stroke-linejoin="round"/>
<path d="M18.6875 9.34375C18.6875 15.8125 11.5 20.8438 11.5 20.8438C11.5 20.8438 4.3125 15.8125 4.3125 9.34375C4.3125 7.43751 5.06975 5.60934 6.41767 4.26142C7.76559 2.9135 9.59376 2.15625 11.5 2.15625C13.4062 2.15625 15.2344 2.9135 16.5823 4.26142C17.9302 5.60934 18.6875 7.43751 18.6875 9.34375V9.34375Z" stroke="#0E171F" stroke-width="2" stroke-linecap="round" stroke-linejoin="round"/>
</svg>
