<svg width="23" height="23" viewBox="0 0 23 23" fill="none" xmlns="http://www.w3.org/2000/svg">
<path d="M8.30842 11.2136C9.05397 12.7379 10.2895 13.9678 11.8171 14.7064C11.9289 14.7594 12.0525 14.7823 12.1758 14.773C12.2992 14.7636 12.4179 14.7224 12.5205 14.6532L14.7698 13.1533C14.8693 13.087 14.9837 13.0465 15.1028 13.0356C15.2218 13.0246 15.3418 13.0436 15.4517 13.0907L19.6597 14.8941C19.8026 14.9548 19.922 15.0603 19.9997 15.1948C20.0775 15.3292 20.1094 15.4853 20.0908 15.6395C19.9578 16.6803 19.45 17.6368 18.6625 18.3302C17.8749 19.0235 16.8617 19.406 15.8125 19.406C12.5719 19.406 9.464 18.1187 7.17254 15.8272C4.88108 13.5358 3.59375 10.4279 3.59375 7.18727C3.59381 6.13805 3.9763 5.12483 4.66961 4.33731C5.36293 3.5498 6.31951 3.042 7.36027 2.909C7.51445 2.89034 7.67053 2.92229 7.80497 3.00005C7.93942 3.0778 8.04495 3.19714 8.10567 3.34009L9.91068 7.55177C9.95737 7.66071 9.97639 7.77951 9.96606 7.89758C9.95572 8.01565 9.91635 8.12933 9.85145 8.2285L8.35677 10.5123C8.28874 10.615 8.24853 10.7337 8.24005 10.8566C8.23158 10.9795 8.25513 11.1025 8.30842 11.2136V11.2136Z" stroke="#0E171F" stroke-width="2" stroke-linecap="round" stroke-linejoin="round"/>
</svg>
