<svg width="15" height="13" viewBox="0 0 15 13" fill="none" xmlns="http://www.w3.org/2000/svg">
<path fill-rule="evenodd" clip-rule="evenodd" d="M7.00564 3.92154L7.03642 4.42904L6.52347 4.3669C4.65632 4.12869 3.02514 3.32083 1.64017 1.96404L0.963072 1.29083L0.788668 1.78797C0.419343 2.89619 0.655301 4.06654 1.42473 4.85369C1.83509 5.28869 1.74276 5.35083 1.03489 5.0919C0.788668 5.00904 0.573229 4.9469 0.552711 4.97797C0.480897 5.05047 0.727114 5.99297 0.922036 6.36583C1.18877 6.88368 1.7325 7.39118 2.32752 7.69154L2.83022 7.92976L2.23519 7.94011C1.66069 7.94011 1.64017 7.95047 1.70172 8.16797C1.9069 8.84118 2.71737 9.55583 3.62016 9.86654L4.25622 10.084L3.70223 10.4155C2.88151 10.8919 1.91716 11.1612 0.952813 11.1819C0.491156 11.1923 0.111572 11.2337 0.111572 11.2648C0.111572 11.3683 1.36317 11.9483 2.09157 12.1762C4.27674 12.8494 6.87227 12.5594 8.82149 11.4098C10.2065 10.5915 11.5914 8.96547 12.2377 7.39118C12.5866 6.55226 12.9354 5.0194 12.9354 4.28404C12.9354 3.80761 12.9661 3.74547 13.5406 3.17583C13.8792 2.8444 14.1972 2.4819 14.2588 2.37833C14.3614 2.18154 14.3511 2.18154 13.8279 2.35762C12.9559 2.66833 12.8328 2.6269 13.2637 2.16083C13.5817 1.8294 13.9613 1.22869 13.9613 1.05262C13.9613 1.02154 13.8074 1.07333 13.633 1.16654C13.4483 1.27012 13.038 1.42547 12.7302 1.51869L12.1762 1.69476L11.6735 1.35297C11.3965 1.16654 11.0067 0.959402 10.8015 0.897259C10.2783 0.752259 9.47807 0.772973 9.00615 0.938688C7.72377 1.40476 6.91331 2.60619 7.00564 3.92154Z" fill="white"/>
</svg>
