<svg width="17" height="12" viewBox="0 0 17 12" fill="none" xmlns="http://www.w3.org/2000/svg">
<path fill-rule="evenodd" clip-rule="evenodd" d="M14.4451 0.624275C15.1182 0.808993 15.6483 1.35326 15.8283 2.04443C16.1552 3.2971 16.1552 5.9108 16.1552 5.9108C16.1552 5.9108 16.1552 8.5244 15.8283 9.77716C15.6483 10.4683 15.1182 11.0126 14.4451 11.1974C13.2251 11.533 8.33296 11.533 8.33296 11.533C8.33296 11.533 3.44079 11.533 2.22079 11.1974C1.54763 11.0126 1.0175 10.4683 0.837587 9.77716C0.510742 8.5244 0.510742 5.9108 0.510742 5.9108C0.510742 5.9108 0.510742 3.2971 0.837587 2.04443C1.0175 1.35326 1.54763 0.808993 2.22079 0.624275C3.44079 0.288574 8.33296 0.288574 8.33296 0.288574C8.33296 0.288574 13.2251 0.288574 14.4451 0.624275ZM6.86631 3.71074V8.59963L10.7774 6.15528L6.86631 3.71074Z" fill="white"/>
</svg>
